<svg height="200px" width="200px" version="1.1" id="Layer_1" xmlns="http://www.w3.org/2000/svg" xmlns:xlink="http://www.w3.org/1999/xlink" viewBox="0 0 512 512" xml:space="preserve" fill="#000000"><g id="SVGRepo_bgCarrier" stroke-width="0"></g><g id="SVGRepo_tracerCarrier" stroke-linecap="round" stroke-linejoin="round"></g><g id="SVGRepo_iconCarrier"> <path style="fill:#E3B236;" d="M328.348,105.739H183.652c-9.217,0-16.696-7.473-16.696-16.696V55.652 c0-27.619,22.468-50.087,50.087-50.087h77.913c27.619,0,50.087,22.468,50.087,50.087v33.391 C345.043,98.266,337.565,105.739,328.348,105.739z"></path> <path style="fill:#DA9A2B;" d="M294.957,5.565H256v100.174h72.348c9.217,0,16.696-7.473,16.696-16.696V55.652 C345.043,28.033,322.576,5.565,294.957,5.565z"></path> <path style="fill:#6E6057;" d="M150.261,506.435H83.478c-9.217,0-16.696-7.473-16.696-16.696v-66.783 c0-9.223,7.479-16.696,16.696-16.696h66.783c9.217,0,16.696,7.473,16.696,16.696v66.783 C166.957,498.962,159.478,506.435,150.261,506.435z"></path> <path style="fill:#615349;" d="M428.522,506.435h-66.783c-9.217,0-16.696-7.473-16.696-16.696v-66.783 c0-9.223,7.479-16.696,16.696-16.696h66.783c9.217,0,16.696,7.473,16.696,16.696v66.783 C445.217,498.962,437.739,506.435,428.522,506.435z"></path> <path style="fill:#DA9A2B;" d="M428.522,239.304H83.478c-5.141,0-10-2.37-13.163-6.419c-3.163-4.055-4.283-9.337-3.033-14.326 l27.065-108.271c5.587-22.337,25.565-37.94,48.599-37.94h226.119c23.022,0,43,15.604,48.587,37.94l27.065,108.271 c1.25,4.989,0.13,10.272-3.033,14.326C438.521,236.935,433.663,239.304,428.522,239.304z"></path> <path style="fill:#CF8B27;" d="M417.652,110.288c-5.586-22.337-25.564-37.94-48.587-37.94H256v166.957h172.522 c5.141,0,10-2.37,13.163-6.419c3.163-4.055,4.283-9.337,3.033-14.326L417.652,110.288z"></path> <path style="fill:#6E6057;" d="M104.859,205.913h302.283l-21.88-87.528c-1.859-7.445-8.521-12.646-16.196-12.646H142.946 c-7.674,0-14.348,5.201-16.207,12.646L104.859,205.913z"></path> <path style="fill:#615349;" d="M369.065,105.739H256v100.174h151.141l-21.88-87.528C383.402,110.94,376.74,105.739,369.065,105.739z "></path> <path style="fill:#E3B236;" d="M510.33,272.696c-7.791-38.066-41.405-66.783-81.809-66.783H83.478 c-40.403,0-74.017,28.717-81.809,66.783C0.557,278.038,0,283.715,0,289.391v66.783c0,5.677,0.557,11.353,1.67,16.696 c7.791,38.066,41.405,66.783,81.809,66.783h345.043c40.403,0,74.017-28.717,81.809-66.783c1.113-5.343,1.67-11.019,1.67-16.696 v-66.783C512,283.715,511.443,278.038,510.33,272.696z"></path> <path style="fill:#DA9A2B;" d="M428.522,205.913H256v233.739h172.522c40.403,0,74.017-28.717,81.809-66.783 c1.113-5.343,1.67-11.019,1.67-16.696v-66.783c0-5.677-0.557-11.353-1.67-16.696C502.539,234.63,468.925,205.913,428.522,205.913z"></path> <path style="fill:#8C6D50;" d="M328.348,306.087H183.652c-9.217,0-16.696-7.473-16.696-16.696s7.479-16.696,16.696-16.696h144.696 c9.217,0,16.696,7.473,16.696,16.696S337.565,306.087,328.348,306.087z"></path> <path style="fill:#765B43;" d="M328.348,272.696H256v33.391h72.348c9.217,0,16.696-7.473,16.696-16.696 S337.565,272.696,328.348,272.696z"></path> <path style="fill:#CCD5E0;" d="M510.33,272.696h-48.417c-45.857,0-83.144,37.176-83.478,82.922 c-0.111,9.461,7.235,17.252,16.696,17.252h115.2c1.113-5.343,1.67-11.019,1.67-16.696v-66.783 C512,283.715,511.443,278.038,510.33,272.696z"></path> <path style="fill:#E2E7EC;" d="M50.087,272.696H1.67C0.557,278.038,0,283.715,0,289.391v66.783c0,5.677,0.557,11.353,1.67,16.696 h115.2c9.461,0,16.807-7.791,16.696-17.252C133.231,309.871,95.944,272.696,50.087,272.696z"></path> <path style="fill:#8C6D50;" d="M376.805,439.652H135.195c-10.392-53.318,30.356-100.174,81.849-100.174h77.913 C346.449,339.478,387.198,386.334,376.805,439.652z"></path> <path style="fill:#765B43;" d="M294.957,339.478H256v100.174h120.805C387.199,386.334,346.449,339.478,294.957,339.478z"></path> </g></svg>